<!DOCTYPE svg PUBLIC "-//W3C//DTD SVG 20010904//EN" "http://www.w3.org/TR/2001/REC-SVG-20010904/DTD/svg10.dtd">
<svg version="1.0" xmlns="http://www.w3.org/2000/svg" width="200px" height="200px" viewBox="0 0 2000 2000" preserveAspectRatio="xMidYMid meet">
<g id="layer101" fill="#000000" stroke="none">
 <path d="M517 1909 c-98 -23 -189 -89 -223 -164 -31 -65 -32 -174 -4 -335 25 -147 26 -234 2 -280 -23 -43 -73 -70 -129 -70 l-43 0 0 -70 0 -69 49 -7 c137 -18 163 -93 121 -349 -22 -134 -25 -250 -9 -310 15 -57 109 -146 180 -172 30 -12 78 -24 107 -28 l52 -7 0 71 0 71 -32 0 c-40 0 -106 30 -132 59 -25 28 -25 77 -2 273 15 129 17 168 7 214 -15 78 -55 162 -98 206 l-35 36 47 62 c70 91 89 152 88 285 0 61 -8 156 -17 212 -27 176 -3 217 147 248 26 5 27 8 27 70 l0 65 -32 -1 c-18 -1 -50 -5 -71 -10z"/>
 <path d="M1342 1853 l3 -68 44 -7 c56 -10 119 -51 127 -83 7 -28 3 -86 -17 -272 -20 -191 1 -287 91 -393 l37 -45 -29 -35 c-46 -55 -85 -130 -97 -188 -16 -76 -14 -149 9 -317 19 -143 19 -149 2 -179 -23 -40 -87 -76 -135 -76 l-38 0 3 -67 3 -68 50 2 c111 4 213 67 263 162 41 76 42 143 6 362 -28 171 -27 230 6 271 25 32 75 56 133 63 l47 6 0 63 0 63 -61 7 c-49 6 -67 13 -96 39 -57 53 -62 139 -18 360 23 119 20 221 -9 282 -25 54 -74 104 -134 134 -46 23 -138 51 -169 51 -23 0 -24 -2 -21 -67z"/>
 <path d="M766 1738 c-41 -58 -8 -136 130 -318 52 -69 102 -135 110 -147 15 -21 13 -31 -24 -140 -65 -192 -64 -198 12 -205 l39 -3 42 83 c23 46 47 88 52 93 7 7 40 -24 102 -95 74 -85 98 -106 119 -106 15 0 37 -3 49 -6 16 -4 23 0 28 16 5 16 -6 38 -49 93 -31 40 -83 109 -116 154 l-60 82 61 136 60 135 -23 43 c-36 65 -52 58 -129 -58 -36 -54 -70 -100 -75 -102 -12 -3 -56 58 -149 208 -43 68 -85 132 -93 142 -21 24 -67 22 -86 -5z"/>
 <path d="M776 1057 c-50 -90 -154 -241 -206 -300 l-50 -56 22 -15 c33 -23 96 -20 134 6 17 12 49 48 70 80 22 31 41 58 44 58 3 0 25 -51 49 -112 49 -126 148 -330 190 -393 34 -50 96 -85 163 -91 87 -8 91 4 22 81 -144 162 -193 252 -319 590 -79 212 -76 205 -84 205 -3 0 -19 -24 -35 -53z"/>
 </g>

</svg>